<svg id="Calque_1" data-name="Calque 1" xmlns="http://www.w3.org/2000/svg" viewBox="0 0 330.11 318.3"><defs><style>.cls-1,.cls-3{fill:#fff;}.cls-1,.cls-2,.cls-3,.cls-4,.cls-6{stroke:#231f20;stroke-miterlimit:10;}.cls-1,.cls-4{stroke-width:3px;}.cls-2{fill:#231f20;stroke-width:10px;}.cls-4,.cls-6{fill:#9f1c47;}.cls-5{fill:#6d1535;}</style></defs><title>EpiphanyLogo</title><ellipse class="cls-1" cx="165.06" cy="159.15" rx="163.56" ry="157.65"/><ellipse class="cls-2" cx="165.28" cy="159.02" rx="151.78" ry="147.11"/><path class="cls-1" d="M433.67,449.11a132.27,132.27,0,0,1-17.78,61.33c-22.12,38.13-66.34,69.57-116.59,69S197,546.45,200,525.56c3.49-24,77-6.3,126.52-56.3,50.68-51.16,30.73-127.23,54-130.59C401.2,335.69,435.7,392.85,433.67,449.11Z" transform="translate(-135.28 -286.54)"/><path class="cls-3" d="M-128.85,560.67" transform="translate(-135.28 -286.54)"/><ellipse class="cls-4" cx="136.39" cy="262.57" rx="13.63" ry="10.67"/><ellipse class="cls-4" cx="268.02" cy="129.54" rx="13.63" ry="23.7"/><ellipse class="cls-4" cx="225.8" cy="182.35" rx="5.78" ry="4.52"/><ellipse class="cls-4" cx="220.83" cy="237.69" rx="23.11" ry="16.89"/><path class="cls-4" d="M318.11,458c-21.83,22.25-68,49.88-107.26,29.33-29.23-15.3-41.47-50.41-40-77.92,3.24-60.59,73.12-87,80.89-89.78,10.73-3.87,59.43-21.41,86.22,2.67C369.06,350.24,355.12,420.28,318.11,458Z" transform="translate(-135.28 -286.54)"/><path class="cls-5" d="M310.34,393.55c-12.9,11.18-40.16,25.08-63.35,14.75-17.26-7.7-24.49-25.36-23.62-39.19,1.91-30.47,43.18-43.74,47.77-45.15,6.33-1.94,35.09-10.77,50.92,1.34C340.42,339.36,332.19,374.58,310.34,393.55Z" transform="translate(-135.28 -286.54)"/><path class="cls-3" d="M626.7,457" transform="translate(-135.28 -286.54)"/><path class="cls-3" d="M603.89,414.89" transform="translate(-135.28 -286.54)"/><path class="cls-3" d="M697.81,516.22" transform="translate(-135.28 -286.54)"/><path class="cls-3" d="M-87.37,446.3" transform="translate(-135.28 -286.54)"/><path class="cls-3" d="M-29.89,433.26" transform="translate(-135.28 -286.54)"/><path class="cls-6" d="M626.11,377" transform="translate(-135.28 -286.54)"/><path class="cls-6" d="M609.52,467" transform="translate(-135.28 -286.54)"/><path class="cls-5" d="M363.66,532c-4.84,1-13.81.6-18.53-5.18a11.32,11.32,0,0,1-1-13c4.5-7.27,17.06-4.8,18.45-4.5,1.91.4,10.61,2.22,13.16,7.42C378.67,522.78,371.88,530.34,363.66,532Z" transform="translate(-135.28 -286.54)"/><path class="cls-5" d="M398.54,408.41c-2-2.39-4.41-7.28-2-11.05,1.8-2.8,5.44-3.73,8.19-3.34,6.06.86,8.1,8.13,8.31,8.93.3,1.12,1.63,6.17-1,8.66C408.93,414.49,402,412.47,398.54,408.41Z" transform="translate(-135.28 -286.54)"/><path class="cls-5" d="M276.27,550.16c-2.14,0-6-.81-7.78-3.59a4.65,4.65,0,0,1,.14-5.49c2.28-2.68,7.6-.69,8.18-.46.81.32,4.49,1.75,5.36,4.11C283.18,547.48,279.9,550.11,276.27,550.16Z" transform="translate(-135.28 -286.54)"/><path class="cls-5" d="M201.71,468.51c-6.89-6.58-15.84-20.85-10.67-33.79,3.85-9.63,13.79-14.18,21.79-14.21,17.64-.07,26.7,21.81,27.66,24.24,1.34,3.36,7.41,18.63,1,27.64C234,482.85,213.39,479.66,201.71,468.51Z" transform="translate(-135.28 -286.54)"/><path class="cls-5" d="M306.93,444.29c-5.52,1-15.38.2-19.65-6.78-3.18-5.19-1.83-11.49,1-15.3,6.17-8.37,19.65-5,21.14-4.61,2.05.54,11.36,3,13.34,9.22C325,434,316.29,442.66,306.93,444.29Z" transform="translate(-135.28 -286.54)"/></svg>